<svg width="64" height="64" viewBox="0 0 64 64" fill="none" xmlns="http://www.w3.org/2000/svg">
<path d="M53.3333 8H10.6667C7.72534 8 5.33334 10.392 5.33334 13.3333V50.6667C5.33334 53.608 7.72534 56 10.6667 56H53.3333C56.2747 56 58.6667 53.608 58.6667 50.6667V13.3333C58.6667 10.392 56.2747 8 53.3333 8ZM10.6667 50.6667V18.6667H53.3333L53.3387 50.6667H10.6667Z" fill="#4630EB"/>
<path d="M24.7813 24.7813L14.896 34.6666L24.7813 44.552L28.552 40.7813L22.4373 34.6666L28.552 28.552L24.7813 24.7813ZM39.2187 24.7813L35.448 28.552L41.5627 34.6666L35.448 40.7813L39.2187 44.552L49.104 34.6666L39.2187 24.7813Z" fill="#4630EB"/>
</svg>
