<svg width="64" height="64" viewBox="0 0 64 64" fill="none" xmlns="http://www.w3.org/2000/svg">
<path d="M43.3067 30.6933L47.4933 26.5066L37.4933 16.5066L33.3067 20.6933L22.2667 9.67997C20.1867 7.59997 16.8 7.59997 14.72 9.67997L9.65333 14.7466C7.57333 16.8266 7.57333 20.2133 9.65333 22.2933L20.6667 33.3066L8 46V56H18L30.6933 43.3066L41.7067 54.32C44.24 56.8533 47.6533 55.92 49.2533 54.32L54.32 49.2533C56.4 47.1733 56.4 43.7866 54.32 41.7066L43.3067 30.6933V30.6933ZM24.48 29.52L13.44 18.5066L18.48 13.44L21.8667 16.8266L18.72 20L22.48 23.76L25.6533 20.5866L29.52 24.4533L24.48 29.52V29.52ZM45.4933 50.56L34.48 39.5466L39.5467 34.48L43.4133 38.3466L40.24 41.52L44 45.28L47.1733 42.1066L50.56 45.4933L45.4933 50.56V50.56ZM55.2267 18.7733C55.4739 18.5266 55.67 18.2336 55.8038 17.911C55.9376 17.5884 56.0065 17.2426 56.0065 16.8933C56.0065 16.5441 55.9376 16.1982 55.8038 15.8756C55.67 15.553 55.4739 15.26 55.2267 15.0133L48.9867 8.77331C47.7333 7.51997 46 7.99997 45.2267 8.77331L40.3467 13.6533L50.3467 23.6533L55.2267 18.7733V18.7733Z" fill="#4630EB"/>
</svg>
