<svg width="65" height="64" viewBox="0 0 65 64" fill="none" xmlns="http://www.w3.org/2000/svg">
<path d="M32.5 5.33331C25.4555 5.42315 18.7248 8.26151 13.7431 13.2431C8.76151 18.2248 5.92315 24.9555 5.83331 32C5.86624 36.1038 6.8459 40.1446 8.69601 43.8078C10.5461 47.471 13.2168 50.6578 16.5 53.12V53.3333H16.7666C21.2818 56.7933 26.8116 58.6684 32.5 58.6684C38.1884 58.6684 43.7182 56.7933 48.2333 53.3333H48.5V53.12C51.7832 50.6578 54.4538 47.471 56.3039 43.8078C58.1541 40.1446 59.1337 36.1038 59.1666 32C59.0768 24.9555 56.2384 18.2248 51.2568 13.2431C46.2752 8.26151 39.5445 5.42315 32.5 5.33331V5.33331ZM22.02 50.48C22.4093 48.6972 23.3964 47.101 24.8175 45.9563C26.2387 44.8116 28.0085 44.1872 29.8333 44.1866H35.1666C36.9915 44.1872 38.7613 44.8116 40.1824 45.9563C41.6036 47.101 42.5907 48.6972 42.98 50.48C39.8036 52.3488 36.1853 53.3343 32.5 53.3343C28.8146 53.3343 25.1963 52.3488 22.02 50.48V50.48ZM47.46 47.04C46.4457 44.6158 44.7376 42.5455 42.5504 41.0889C40.3633 39.6324 37.7944 38.8546 35.1666 38.8533H29.8333C27.2055 38.8546 24.6367 39.6324 22.4495 41.0889C20.2623 42.5455 18.5543 44.6158 17.54 47.04C15.5417 45.0746 13.9504 42.7348 12.8568 40.1541C11.7632 37.5735 11.1889 34.8027 11.1666 32C11.2358 26.3635 13.5056 20.9774 17.4915 16.9915C21.4774 13.0056 26.8635 10.7358 32.5 10.6666C38.1364 10.7358 43.5226 13.0056 47.5084 16.9915C51.4943 20.9774 53.7641 26.3635 53.8333 32C53.811 34.8027 53.2367 37.5735 52.1431 40.1541C51.0496 42.7348 49.4582 45.0746 47.46 47.04V47.04Z" fill="#4630EB"/>
<path d="M32.5 16C31.0903 15.9672 29.6885 16.2206 28.3795 16.7451C27.0705 17.2695 25.8815 18.054 24.8844 19.0511C23.8873 20.0482 23.1028 21.2372 22.5784 22.5462C22.0539 23.8552 21.8005 25.2569 21.8333 26.6667C21.8005 28.0764 22.0539 29.4782 22.5784 30.7872C23.1028 32.0962 23.8873 33.2852 24.8844 34.2823C25.8815 35.2794 27.0705 36.0639 28.3795 36.5883C29.6885 37.1127 31.0903 37.3662 32.5 37.3334C33.9097 37.3662 35.3115 37.1127 36.6205 36.5883C37.9295 36.0639 39.1185 35.2794 40.1156 34.2823C41.1127 33.2852 41.8972 32.0962 42.4216 30.7872C42.9461 29.4782 43.1995 28.0764 43.1667 26.6667C43.1995 25.2569 42.9461 23.8552 42.4216 22.5462C41.8972 21.2372 41.1127 20.0482 40.1156 19.0511C39.1185 18.054 37.9295 17.2695 36.6205 16.7451C35.3115 16.2206 33.9097 15.9672 32.5 16V16ZM32.5 32C31.7905 32.0343 31.0817 31.9198 30.4191 31.664C29.7565 31.4081 29.1548 31.0164 28.6525 30.5142C28.1503 30.0119 27.7586 29.4102 27.5027 28.7476C27.2468 28.085 27.1324 27.3762 27.1667 26.6667C27.1324 25.9572 27.2468 25.2484 27.5027 24.5858C27.7586 23.9232 28.1503 23.3215 28.6525 22.8192C29.1548 22.317 29.7565 21.9253 30.4191 21.6694C31.0817 21.4135 31.7905 21.2991 32.5 21.3334C33.2095 21.2991 33.9183 21.4135 34.5809 21.6694C35.2435 21.9253 35.8452 22.317 36.3475 22.8192C36.8497 23.3215 37.2414 23.9232 37.4973 24.5858C37.7532 25.2484 37.8676 25.9572 37.8333 26.6667C37.8676 27.3762 37.7532 28.085 37.4973 28.7476C37.2414 29.4102 36.8497 30.0119 36.3475 30.5142C35.8452 31.0164 35.2435 31.4081 34.5809 31.664C33.9183 31.9198 33.2095 32.0343 32.5 32Z" fill="#4630EB"/>
</svg>
