<svg id="Calque_1" data-name="Calque 1" xmlns="http://www.w3.org/2000/svg" viewBox="0 0 250 250"><defs><style>.cls-1{fill:#020202;}</style></defs><path class="cls-1" d="M142.65,95.43V200.57c0,4.44.51,5,4.92,5,9.59,0,19.18,0,28.77,0a36.28,36.28,0,0,0,7.13-.69c6.05-1.27,9.07-4.57,10-10.71a41,41,0,0,0,.45-6q0-43.26,0-86.51a33.13,33.13,0,0,0-.68-6.89c-1.26-5.93-4.54-8.95-10.54-9.88a41.15,41.15,0,0,0-6-.47c-8.47,0-16.94,0-25.41,0H149c-.11-.17-.16-.23-.19-.29s-.08-.17-.05-.22Q167.7,51,186.65,18.07a1.93,1.93,0,0,1,1.18-1L172.58,52.69c1.13.07,1.95.14,2.78.16,4.79.12,9.58.08,14.36.38A46.47,46.47,0,0,1,207,57.62c12.11,5.8,19.24,15.54,21.86,28.54a66.8,66.8,0,0,1,1.35,13.07q.16,45.66,0,91.3a57.57,57.57,0,0,1-2.38,17.26c-4.65,14.88-14.84,23.82-29.81,27.55A60.81,60.81,0,0,1,183.37,237q-35.12,0-70.22,0c-5.27,0-6.89-1.63-6.89-6.88q0-35.46,0-70.93a6.5,6.5,0,0,1,.88-3.4q17-29.43,34-58.89c.31-.54.67-1,1-1.57Z"/><path class="cls-1" d="M69.64,197.29l-2.56-.18c-3.77-.27-5.4-2-5.52-5.81,0-1,0-1.91,0-2.87V49.9a21,21,0,0,0-.07-2.63,2.68,2.68,0,0,0-2.82-2.67c-.64-.06-1.28,0-1.92,0H27a21.31,21.31,0,0,1-2.4-.06,4.85,4.85,0,0,1-4.79-4.74,22.89,22.89,0,0,1-.13-2.87q0-8,0-16.06c0-.4,0-.8,0-1.2.1-4.86,1.82-6.59,6.76-6.59q53.32,0,106.67,0a13.51,13.51,0,0,1,1.91.1c3.19.44,4.79,2,4.83,5.2q.15,10.42,0,20.85c-.05,3.62-2,5.34-5.93,5.36-8.79,0-17.58,0-26.37,0-2,0-4,0-6,0-2.74.06-3.58.89-3.68,3.57,0,.8,0,1.6,0,2.4q0,52.73,0,105.45a9.43,9.43,0,0,1-1.33,5Q76.41,195.8,56.32,230.66c-.49.86-1,1.69-1.53,2.53l-.44-.22Z"/></svg>